<svg width="662.25" height="755" xmlns="http://www.w3.org/2000/svg" xmlns:xlink="http://www.w3.org/1999/xlink" fill="white"><defs><style>
  text {
    fill: #212529;
    font-family: Helvetica Neue, Helvetica, Arial, sans-serif;
    font-size: 16px;
  }

  marker, text {
    fill-opacity: 1;
  }

  * {
    overflow: visible;
  }
</style></defs><svg x="325" y="15" width="220" height="132" class="Turm" fill="white"><g><rect width="100%" height="40"></rect><rect y="40" width="100%" height="92"></rect><svg height="40"><text x="50%" y="50%" dominant-baseline="middle" text-anchor="middle" font-weight="bold" pointer-events="none">Turm</text></svg><rect width="100%" height="100%" stroke="black" fill="none" pointer-events="none"></rect><path d="M 0 40 H 220" stroke="black"></path><path d="M 0 41 H 220" stroke="black"></path></g></svg><svg x="325.5" y="56.5" width="219" height="30" class="+ anzahlSpielsteineGeben()" fill="white"><g><rect width="100%" height="100%"></rect><text x="10" y="50%" dominant-baseline="middle" text-anchor="start" font-weight="normal" pointer-events="none">+ anzahlSpielsteineGeben()</text></g></svg><svg x="325.5" y="86.5" width="219" height="30" class="+ listendatenAusgeben()" fill="white"><g><rect width="100%" height="100%"></rect><text x="10" y="50%" dominant-baseline="middle" text-anchor="start" font-weight="normal" pointer-events="none">+ listendatenAusgeben()</text></g></svg><svg x="325.5" y="116.5" width="219" height="30" class="+ turmhoeheGeben()" fill="white"><g><rect width="100%" height="100%"></rect><text x="10" y="50%" dominant-baseline="middle" text-anchor="start" font-weight="normal" pointer-events="none">+ turmhoeheGeben()</text></g></svg><svg x="325" y="315" width="250" height="202" class="Stein" fill="white"><g><rect width="100%" height="50"></rect><rect y="50" width="100%" height="152"></rect><svg height="50"><text x="50%" y="50%" dominant-baseline="middle" text-anchor="middle" font-weight="bold" pointer-events="none"><tspan x="50%" dy="-8" text-anchor="middle" font-size="85%">«abstract»</tspan><tspan x="50%" dy="18" text-anchor="middle" font-style="italic">Stein</tspan></text></svg><rect width="100%" height="100%" stroke="black" fill="none" pointer-events="none"></rect><path d="M 0 50 H 250" stroke="black"></path><path d="M 0 111 H 250" stroke="black"></path></g></svg><svg x="325.5" y="365.5" width="249" height="30" class="- height: double" fill="white"><g><rect width="100%" height="100%"></rect><text x="10" y="50%" dominant-baseline="middle" text-anchor="start" font-weight="normal" pointer-events="none">- height: double</text></g></svg><svg x="325.5" y="395.5" width="249" height="30" class="- color: java.awt.Color" fill="white"><g><rect width="100%" height="100%"></rect><text x="10" y="50%" dominant-baseline="middle" text-anchor="start" font-weight="normal" pointer-events="none">- color: java.awt.Color</text></g></svg><svg x="325.5" y="426.5" width="249" height="30" class="+ anzahlSpielsteineGeben() : int" fill="white"><g><rect width="100%" height="100%"></rect><text x="10" y="50%" dominant-baseline="middle" text-anchor="start" font-weight="normal" pointer-events="none">+ anzahlSpielsteineGeben() : int</text></g></svg><svg x="325.5" y="456.5" width="249" height="30" class="+ listendatenAusgeben() " fill="white"><g><rect width="100%" height="100%"></rect><text x="10" y="50%" dominant-baseline="middle" text-anchor="start" font-weight="normal" pointer-events="none">+ listendatenAusgeben() </text></g></svg><svg x="325.5" y="486.5" width="249" height="30" class="+ turmhoeheGeben() : double" fill="white"><g><rect width="100%" height="100%"></rect><text x="10" y="50%" dominant-baseline="middle" text-anchor="start" font-weight="normal" pointer-events="none">+ turmhoeheGeben() : double</text></g></svg><svg x="15" y="525" width="220" height="132" class="Abschluss" fill="white"><g><rect width="100%" height="40"></rect><rect y="40" width="100%" height="92"></rect><svg height="40"><text x="50%" y="50%" dominant-baseline="middle" text-anchor="middle" font-weight="bold" pointer-events="none">Abschluss</text></svg><rect width="100%" height="100%" stroke="black" fill="none" pointer-events="none"></rect><path d="M 0 40 H 220" stroke="black"></path><path d="M 0 41 H 220" stroke="black"></path></g></svg><svg x="15.5" y="566.5" width="219" height="30" class="+ anzahlSpielsteineGeben()" fill="white"><g><rect width="100%" height="100%"></rect><text x="10" y="50%" dominant-baseline="middle" text-anchor="start" font-weight="normal" pointer-events="none">+ anzahlSpielsteineGeben()</text></g></svg><svg x="15.5" y="596.5" width="219" height="30" class="+ listenDatenAusgeben()" fill="white"><g><rect width="100%" height="100%"></rect><text x="10" y="50%" dominant-baseline="middle" text-anchor="start" font-weight="normal" pointer-events="none">+ listenDatenAusgeben()</text></g></svg><svg x="15.5" y="626.5" width="219" height="30" class="+ turmhoeheGeben()" fill="white"><g><rect width="100%" height="100%"></rect><text x="10" y="50%" dominant-baseline="middle" text-anchor="start" font-weight="normal" pointer-events="none">+ turmhoeheGeben()</text></g></svg><svg x="365" y="665" width="220" height="72" class="Baustein" fill="white"><g><rect width="100%" height="40"></rect><rect y="40" width="100%" height="32"></rect><svg height="40"><text x="50%" y="50%" dominant-baseline="middle" text-anchor="middle" font-weight="bold" pointer-events="none">Baustein</text></svg><rect width="100%" height="100%" stroke="black" fill="none" pointer-events="none"></rect><path d="M 0 40 H 220" stroke="black"></path><path d="M 0 41 H 220" stroke="black"></path></g></svg><svg x="365.5" y="706.5" width="219" height="30" class="+ anzahlSpielsteineGeben()" fill="white"><g><rect width="100%" height="100%"></rect><text x="10" y="50%" dominant-baseline="middle" text-anchor="start" font-weight="normal" pointer-events="none">+ anzahlSpielsteineGeben()</text></g></svg><svg x="120" y="406" width="205" height="119" class="" fill="white"><g><marker id="marker-92432bc0-5fb8-487f-88f1-f5ce75e0b0cf" style="transform: scale(1);" viewBox="0 0 30 30" markerWidth="22" markerHeight="30" refX="30" refY="15" orient="auto" markerUnits="strokeWidth"><path d="M0,1 L0,29 L30,15 z" fill="white" stroke="black"></path></marker><polyline points="5 119,5 10,205 10" stroke="black" fill="none" stroke-width="1" marker-end="url(#marker-92432bc0-5fb8-487f-88f1-f5ce75e0b0cf)"></polyline><text x="5" y="111" dx="5" text-anchor="start" pointer-events="none"></text><text x="174" y="10" dy="21" text-anchor="end" pointer-events="none"></text><text x="5" y="111" dx="-5" text-anchor="end" pointer-events="none"></text><text x="174" y="10" dy="-10" text-anchor="end" pointer-events="none"></text></g></svg><svg x="465" y="517" width="10" height="148" class="" fill="white"><g><marker id="marker-64dae1d2-54b1-4d47-a6ec-ab17eec75af8" style="transform: scale(1);" viewBox="0 0 30 30" markerWidth="22" markerHeight="30" refX="30" refY="15" orient="auto" markerUnits="strokeWidth"><path d="M0,1 L0,29 L30,15 z" fill="white" stroke="black"></path></marker><polyline points="5 148,5 0" stroke="black" fill="none" stroke-width="1" marker-end="url(#marker-64dae1d2-54b1-4d47-a6ec-ab17eec75af8)"></polyline><text x="5" y="140" dx="5" text-anchor="start" pointer-events="none"></text><text x="5" y="31" dx="5" dy="10" text-anchor="start" pointer-events="none"></text><text x="5" y="140" dx="-5" text-anchor="end" pointer-events="none"></text><text x="5" y="31" dx="-5" dy="10" text-anchor="end" pointer-events="none"></text></g></svg><svg x="445" y="275" width="201.25" height="464" class="" fill="white"><g><marker id="marker-410a49b0-2b74-4a21-ae35-3258ddd54f32" style="transform: scale(1);" viewBox="0 0 30 30" markerWidth="30" markerHeight="30" refX="30" refY="15" orient="auto" markerUnits="strokeWidth"><path d="M0,15 L15,22 L30,15 L15,8 z" fill="white" stroke="black"></path></marker><polyline points="5 40,5 0,180 0,180 426,140 426" stroke="black" fill="none" stroke-width="1" marker-end="url(#marker-410a49b0-2b74-4a21-ae35-3258ddd54f32)"></polyline><text x="5" y="32" dx="5" text-anchor="start" pointer-events="none"></text><text x="171" y="426" dy="21" text-anchor="start" pointer-events="none">0..1</text><text x="5" y="32" dx="-5" text-anchor="end" pointer-events="none"></text><text x="171" y="426" dy="-10" text-anchor="start" pointer-events="none">next</text></g></svg><svg x="404.21666717529297" y="147" width="62.483333587646484" height="168" class="" fill="white"><g><marker id="marker-5bc52b59-bd25-42ac-a28c-19707d5e4249" viewBox="0 0 30 30" markerWidth="22" markerHeight="30" refX="30" refY="15" orient="auto" markerUnits="strokeWidth"><path d="M0,29 L30,15 L0,1" fill="none" stroke="black"></path></marker><polyline points="30.78333282470703 0,30.78333282470703 168" stroke="black" fill="none" stroke-width="1" marker-end="url(#marker-5bc52b59-bd25-42ac-a28c-19707d5e4249)"></polyline><text x="30.78333282470703" y="8" dx="5" dy="10" text-anchor="start" pointer-events="none">0..1</text><text x="30.78333282470703" y="137" dx="5" text-anchor="start" pointer-events="none"></text><text x="30.78333282470703" y="8" dx="-5" dy="10" text-anchor="end" pointer-events="none">first</text><text x="30.78333282470703" y="137" dx="-5" text-anchor="end" pointer-events="none"></text></g></svg></svg>